<svg width="56" height="54" viewBox="0 0 56 54" fill="none" xmlns="http://www.w3.org/2000/svg">
<g clip-path="url(#clip0_1_6339)">
<path d="M28.3 0C13.1132 0 0.800049 12.0893 0.800049 27C0.800049 41.9108 13.1132 54 28.3 54C43.4869 54 55.8 41.9108 55.8 27C55.8 12.0893 43.4869 0 28.3 0ZM28.3 1.755C42.4992 1.755 54.0103 13.0568 54.0103 27C54.0103 40.941 42.5015 52.2427 28.3 52.2427C14.0986 52.2427 2.58984 40.941 2.58984 27C2.58984 13.059 14.1009 1.755 28.3 1.755ZM26.7463 3.1725C25.99 3.204 25.2338 3.267 24.473 3.348L24.2278 9.972C24.7674 9.88235 25.3101 9.81181 25.8548 9.7605L26.0153 5.2875L25.9855 4.97925L26.084 5.27175L27.6057 8.622H28.9944L30.5161 5.274L30.6078 4.97925L30.5848 5.2875L30.7453 9.7605C31.2769 9.81 31.8292 9.882 32.3723 9.972L32.1226 3.348C31.367 3.26441 30.6088 3.20587 29.8492 3.1725L28.3528 6.82875L28.3 7.09875L28.2473 6.82875L26.7463 3.1725ZM42.0913 7.2765L38.5553 12.7395C39.0021 13.077 39.5911 13.5743 39.9692 13.914L43.299 12.2175L43.5098 12.0623L43.3517 12.2738L41.6284 15.543C42.0019 15.9368 42.5405 16.5735 42.843 16.9605L48.4117 13.4865C48.0702 13.0527 47.7187 12.6266 47.3576 12.2085L43.8307 14.49L43.5901 14.697L43.7688 14.4382L45.3271 11.3872L44.2271 10.3073L41.1196 11.8373L40.8561 12.0128L41.0646 11.7743L43.3975 8.3115C42.9851 7.9695 42.5932 7.65675 42.0913 7.2765ZM13.4042 8.51625C12.5792 8.5995 11.9421 9.153 10.2119 11.0475C9.61196 11.7151 9.03341 12.4009 8.47713 13.104L13.23 17.5297C14.8044 15.8197 15.4438 15.1853 16.6859 13.9005C17.5636 12.9893 18.0609 11.943 17.1809 10.9373C16.7042 10.3927 15.9021 10.2735 15.233 10.5435L15.1688 10.566L15.1917 10.5075C15.2744 10.209 15.2656 9.89312 15.1666 9.59941C15.0676 9.30571 14.8826 9.04715 14.6348 8.856C14.4626 8.72268 14.2652 8.62421 14.0539 8.56628C13.8427 8.50835 13.6219 8.48986 13.4042 8.51625ZM13.418 9.9C13.7296 9.81675 14.0528 10.035 14.1238 10.35C14.1971 10.665 13.9955 10.962 13.7709 11.2095C13.2667 11.772 11.4082 13.68 11.4082 13.68L10.4869 12.8182C11.4425 11.6707 12.46 10.6267 12.9207 10.2128C13.0589 10.0713 13.2293 9.96411 13.418 9.9ZM28.3 10.9867C24.2631 10.985 20.369 12.4539 17.3717 15.1091C14.3744 17.7643 12.487 21.4168 12.075 25.3597V25.3643C11.8161 27.8658 12.1603 30.3921 13.08 32.7388C13.9996 35.0855 15.4688 37.1868 17.3687 38.8728C19.2687 40.5588 21.5461 41.7822 24.0168 42.444C26.4874 43.1058 29.0821 43.1875 31.5909 42.6825C35.2683 41.9403 38.5719 39.9744 40.9436 37.1171C43.3153 34.2597 44.6095 30.686 44.6075 27C44.6033 22.7551 42.8838 18.6853 39.8264 15.6839C36.769 12.6825 32.6236 10.9948 28.3 10.9913V10.9867ZM15.6111 11.5312C15.7188 11.5312 15.8311 11.5605 15.9319 11.628C16.1336 11.7608 16.2253 11.988 16.1748 12.213C16.1153 12.4808 15.8884 12.7327 15.705 12.9285L13.3103 15.4485L12.3478 14.5485C12.3478 14.5485 14.1513 12.6765 14.7425 12.0758C14.9763 11.8373 15.1275 11.6933 15.288 11.6145C15.3873 11.5638 15.4992 11.5354 15.6111 11.5312ZM28.3 13.0905C30.1611 13.0884 32.0043 13.4468 33.7241 14.1451C35.4438 14.8434 37.0064 15.8678 38.3224 17.1599C39.6384 18.4519 40.6818 19.9861 41.393 21.6746C42.1042 23.3631 42.4692 25.1728 42.4671 27H28.3V40.9095C26.439 40.9116 24.5958 40.5532 22.876 39.8549C21.1563 39.1566 19.5937 38.1322 18.2777 36.8401C16.9617 35.5481 15.9183 34.0139 15.2071 32.3254C14.4959 30.6369 14.1309 28.8272 14.133 27H28.3V13.0905Z" fill="black"/>
</g>
<defs>
<clipPath id="clip0_1_6339">
<rect width="55" height="54" fill="white" transform="translate(0.800049)"/>
</clipPath>
</defs>
</svg>
