<svg width="112" height="44" viewBox="0 0 112 44" fill="none" xmlns="http://www.w3.org/2000/svg">
<path d="M93.4675 31.0651C93.493 31.2287 93.7075 31.3854 93.9152 31.4595C93.9918 31.4851 94.0293 31.5362 93.9493 31.71C93.3568 32.9812 92.8119 33.7141 92.0691 34.8187C91.3856 35.8393 90.6159 36.6355 89.6841 37.4014C88.2784 38.5655 86.3264 39.8328 84.7126 38.9809C83.9958 38.6086 83.6856 37.6044 83.6994 36.7916C83.7335 34.5057 84.7496 32.1591 86.6257 29.8527C88.9129 27.0345 91.4414 25.5727 93.1008 26.3717C94.8177 27.1913 94.2698 29.1807 93.5009 30.7423C93.4413 30.8633 93.4413 30.9655 93.4669 31.0643M111.891 13.2539C112.014 13.0358 111.884 12.8765 111.609 12.8765C110.175 12.8765 108.293 12.8797 106.799 12.8797C106.443 12.8797 106.26 12.9222 106.092 13.2545C105.54 14.312 98.8192 24.3934 97.5682 26.3512C97.3571 26.6494 97.1 26.6075 97.0702 26.2659C96.9434 25.1031 95.9401 23.7665 94.3593 23.1269C93.1546 22.6379 91.9769 22.5492 90.7524 22.712C88.5418 23.0093 86.5725 24.1764 84.841 25.4927C82.2314 27.4782 79.9799 30.0517 77.0734 31.9532C75.4868 32.9884 73.314 33.8911 71.86 32.5436C70.5443 31.3226 70.6929 28.6109 72.7061 26.5135C72.9181 26.2937 73.1726 26.4794 73.1326 26.6745C72.9427 27.623 73.1751 28.5663 73.8953 29.2277C74.7735 30.0157 76.0305 30.1047 77.1064 29.5787C78.3759 28.9491 79.1219 27.7334 79.3393 26.3536C79.6756 24.2133 78.0296 22.3256 75.9697 22.1742C74.2964 22.0566 72.6918 22.6393 71.1282 23.9308C70.3442 24.5817 69.8991 25.0626 69.2211 26.0276C69.0559 26.2653 68.8022 26.289 68.8098 25.938C68.8865 23.1978 67.7551 21.6561 65.4917 21.6058C63.7346 21.5632 61.8577 22.5178 60.3946 23.6853C58.7908 24.9744 57.3884 26.6828 55.885 28.288C55.6977 28.4857 55.5351 28.4763 55.4823 28.0929C55.4397 26.2773 54.981 24.5187 54.1415 23.2699C53.8444 22.8354 53.219 22.6207 52.6936 22.9137C52.451 23.0466 51.6071 23.4352 50.9926 23.9303C50.6878 24.1817 50.5686 24.5455 50.7039 25.0118C51.5143 27.7243 51.3364 30.8083 50.2366 33.413C49.2269 35.7987 47.2648 37.9502 44.9584 38.6785C43.4391 39.1607 41.8598 38.9248 40.8824 37.5766C39.5401 35.7161 40.0821 32.4804 42.0831 29.7937C43.8488 27.4279 46.4031 25.9251 48.9507 24.9574C49.2503 24.8416 49.3125 24.649 49.2274 24.3943C49.0895 23.9751 48.8681 23.4042 48.7787 23.1437C48.5446 22.5209 47.8906 22.4203 47.0916 22.5072C45.2405 22.7228 43.5705 23.3575 41.9211 24.2415C37.6017 26.5565 35.4361 31.0369 34.4871 33.4338C34.03 34.5853 33.6393 35.3035 33.1343 35.9405C32.4533 36.797 31.5985 37.5769 30.0356 38.9507C29.8943 39.0768 29.7887 39.3392 29.9079 39.5837C30.0671 39.9143 30.88 41.0633 31.1094 41.1658C31.3639 41.291 31.6592 41.1146 31.7775 41.0311C32.8712 40.289 34.1797 39.113 34.82 38.3153C35.0448 38.0418 35.2755 38.1569 35.3947 38.5718C35.9922 40.7055 37.5569 42.4478 39.7206 43.1766C43.6811 44.5134 47.7889 42.5785 50.8897 39.2101C52.8603 37.0691 53.5714 35.692 54.3268 34.7562C55.6069 33.1688 58.132 29.6177 61.1395 27.3377C62.2425 26.4969 63.5475 25.8555 64.2038 26.2815C64.7308 26.6231 64.9011 27.4171 64.0558 28.9555C60.9893 34.5597 56.4778 41.1441 55.6504 42.7407C55.4989 43.0176 55.6333 43.2356 55.9211 43.2356C57.5257 43.2277 59.1162 43.2317 60.5728 43.2317C60.8154 43.2232 60.9236 43.1091 61.0453 42.9378C63.3986 39.2511 65.6131 35.7423 67.9869 32.1144C68.1197 31.9006 68.2422 32.0632 68.2473 32.157C68.2984 32.9987 68.5027 34.1499 69.0023 34.9059C69.8997 36.3035 71.1712 36.904 72.5814 36.9132C73.7035 36.9303 74.2713 36.7555 75.4813 36.3032C76.466 35.9377 77.2563 35.458 77.863 35.024C78.2171 34.7769 78.2792 35.1901 78.2707 35.2531C77.7259 38.1799 78.3985 41.6478 81.3048 43.0856C84.7829 44.802 88.6039 42.3895 90.8026 40.2117C91.0179 40.0021 91.2486 40.0243 91.2707 40.4767C91.3218 41.3082 91.6929 42.2949 92.3802 42.9854C94.2227 44.836 97.9407 44.1026 101.672 41.2122C104.067 39.3616 106.574 36.747 108.838 33.9784C108.923 33.871 108.984 33.6989 108.821 33.5243C108.476 33.1631 107.978 32.7498 107.636 32.4316C107.48 32.2987 107.251 32.337 107.12 32.4362C104.799 34.6453 102.71 37.1646 99.6904 39.248C98.6719 39.9594 97.0489 40.5333 96.32 39.5455C96.0357 39.1621 96.0681 38.632 96.3456 37.9361C97.2259 35.7389 111.164 14.5003 111.887 13.2476" fill="black"/>
<path d="M46.3151 15.8167C46.3747 16.132 46.4973 16.1934 46.6403 16.167C47.3503 16.0247 48.1272 15.4402 48.5872 14.7627C49.006 14.1484 49.2026 13.262 48.7864 12.9068C48.4152 12.5874 47.8109 12.6776 47.3629 13.0738C46.4707 13.8627 46.1998 14.982 46.3148 15.8174M10.7906 43.1562C5.59372 43.1902 1.01529 39.9781 0.4899 34.4136C0.197924 31.3301 1.06876 28.582 2.81219 26.318C4.35924 24.3006 6.97696 22.6246 9.19274 22.2152C9.91374 22.0831 10.8825 22.1641 11.283 22.6446C11.9113 23.3764 11.7307 24.1803 11.1025 24.5011C9.41202 25.3649 7.37792 26.8438 6.37141 28.8631C5.55507 30.5113 5.39014 32.4976 6.63704 34.3899C8.72403 37.5435 14.5415 37.6303 19.9506 32.6009C21.2902 31.3699 22.4889 30.1873 23.7075 28.7864C26.0898 26.0601 26.8823 25.0667 30.0491 20.6703C30.0831 20.6192 30.1001 20.5526 30.0831 20.5203C30.0576 20.4606 30.0151 20.4521 29.9206 20.4436C27.8065 20.5032 25.9634 21.1329 24.1718 22.4729C23.656 22.8494 22.9134 22.7966 22.5883 22.3007C22.2266 21.7401 22.4863 21.0104 23.0813 20.5983C25.9632 18.5922 29.1115 18.2284 32.3265 17.6854C32.3239 17.6854 32.5496 17.6938 32.7335 17.4519C34.0532 15.7566 35.0498 14.2275 36.4567 12.5131C37.8743 10.7736 39.7054 9.1763 41.1044 7.97648C43.0573 6.29589 44.3097 5.73035 45.5825 5.03719C45.9179 4.86169 45.54 4.65213 45.4378 4.65213C38.3316 3.3154 30.9453 1.58566 23.888 4.20051C19.0004 6.02602 16.8584 9.90524 17.8887 12.4973C18.6216 14.3361 21.0378 14.635 23.2999 13.5271C25.1787 12.6058 26.9173 11.1209 28.1498 9.20939C28.8393 8.14785 30.2923 8.91373 29.5073 10.757C27.4421 15.6151 23.4968 19.4686 18.691 19.6313C14.6011 19.7642 11.9622 16.7528 11.9708 13.0376C11.9878 5.70987 20.1383 0.882913 28.7043 0.161299C39.0202 -0.691944 48.7909 2.05825 59.0335 3.3017C66.8811 4.25283 74.4049 4.27262 82.2929 2.45904C83.2253 2.25627 83.8796 2.85178 83.8188 3.7944C83.7422 5.15694 82.6874 6.4692 80.0895 7.8873C77.1349 9.5091 74.044 10.0012 70.8157 10.0276C63.0097 10.0958 55.7384 7.04731 48.2139 5.41094C48.2224 5.74065 48.3093 6.13334 48.0335 6.34148C43.8656 9.41835 40.0981 12.5429 37.575 16.9315C37.4898 17.0329 37.5324 17.1292 37.683 17.119C39.8738 17.0022 41.8439 16.946 43.8891 16.7824C44.2467 16.7483 44.2602 16.6631 44.2287 16.4024C44.0474 14.8897 44.4892 13.1648 45.8186 11.9783C47.1794 10.7572 48.8831 10.6184 50.0125 11.4978C51.2965 12.4992 51.1828 14.3001 50.4806 15.6507C49.7656 17.0211 48.5847 17.7541 47.4514 18.1099C47.4514 18.1099 47.213 18.1611 47.2487 18.3775C47.2913 18.7234 48.8375 19.5798 48.9696 19.808C49.0973 20.0252 49.0293 20.3618 48.7969 20.62C48.6334 20.8074 48.3772 20.9829 48.0495 20.9769C47.7848 20.9717 47.6239 20.8798 47.2851 20.6967C46.5922 20.321 45.7262 19.7032 45.1485 18.975C44.9519 18.7287 44.8514 18.7237 44.3603 18.751C42.147 18.8788 38.6961 19.2127 36.358 19.505C35.7911 19.5731 35.7077 19.6813 35.591 19.8781C31.8632 26.0305 27.8828 32.6652 23.5126 37.1073C18.8252 41.8701 14.9289 43.1241 10.7926 43.1566" fill="black"/>
</svg>
