<svg width="56" height="54" viewBox="0 0 56 54" fill="none" xmlns="http://www.w3.org/2000/svg">
<path fill-rule="evenodd" clip-rule="evenodd" d="M40.0246 4.25861C48.3427 8.55363 54.0249 17.1167 54.0249 26.9872C54.0249 36.8577 48.3427 45.4478 40.0246 49.7165V46.7816C43.2057 44.9132 45.8966 42.2989 47.8546 39.2047L40.0246 36.0842V31.3356L48.6149 37.9249C50.4093 34.6701 51.4151 30.9616 51.4151 26.9865C51.4151 18.6098 46.8474 11.2476 40.0246 7.19216V4.25861ZM27.9274 1.35071C32.2772 1.35071 36.3816 2.39156 40.0246 4.25861V7.19351C36.6806 5.21846 32.766 4.04531 28.6342 3.91166L31.6241 24.9069L40.0246 31.3362V36.0849L27.8724 31.2559L15.802 36.1112V31.3889L24.2568 24.9062L27.22 3.91098C23.0331 4.04463 19.146 5.21846 15.802 7.19216V4.25861C19.4182 2.39156 23.5501 1.35071 27.9274 1.35071ZM40.0246 49.7165C36.3816 51.5835 32.2765 52.65 27.9274 52.65C23.5508 52.65 19.4189 51.5835 15.8027 49.7428V46.7816C19.3371 48.8883 23.4958 50.0891 27.9274 50.0891C32.3315 50.0891 36.4641 48.8883 40.0246 46.7816V49.7165ZM15.8027 49.7428C7.4564 45.4478 1.7749 36.8577 1.7749 26.9872C1.7749 17.1167 7.4564 8.55363 15.8027 4.25861V7.19351C8.95171 11.2482 4.38465 18.5841 4.38465 26.9872C4.38465 30.9616 5.41797 34.7241 7.21234 37.9782L15.8027 31.3889V36.1112L8.00022 39.258C9.95753 42.3273 12.6216 44.9139 15.8027 46.7816V49.7428Z" fill="black"/>
</svg>
