<svg width="82" height="54" viewBox="0 0 82 54" fill="none" xmlns="http://www.w3.org/2000/svg">
<g clip-path="url(#clip0_1_6316)">
<path d="M41.0001 0.373169C18.5676 0.373169 0.37915 12.2938 0.37915 26.9946C0.37915 41.7007 18.5676 53.6268 41.0001 53.6268C63.4327 53.6268 81.6211 41.7061 81.6211 26.9946C81.6211 12.283 63.4327 0.373169 41.0001 0.373169ZM41.0001 42.1983C37.6635 42.1983 34.9409 35.5402 34.77 27.1622C36.7773 27.3407 38.8647 27.4381 41.0001 27.4381C43.1355 27.4381 45.2229 27.3407 47.2302 27.1622C47.0594 35.5348 44.3367 42.1983 41.0001 42.1983ZM35.1811 20.5096C36.0887 14.5871 38.3522 10.3846 41.0001 10.3846C43.648 10.3846 45.9116 14.5871 46.8191 20.5096C44.956 20.6773 43.0127 20.7692 41.0001 20.7692C38.9875 20.7692 37.0443 20.6773 35.1811 20.5096ZM41.0001 4.22413C36.6439 4.22413 32.9282 10.8335 31.5562 20.0607C23.2975 18.7572 17.5319 15.7824 17.5319 12.3263C17.5319 7.66403 28.0381 3.88339 41.0001 3.88339C53.9621 3.88339 64.4683 7.66403 64.4683 12.3263C64.4683 15.7824 58.7027 18.7572 50.444 20.0607C49.072 10.8335 45.3564 4.22413 41.0001 4.22413ZM6.2035 25.9994C6.2035 21.4886 7.91717 17.2536 10.9014 13.619C10.8694 13.8732 10.848 14.1328 10.848 14.3924C10.848 20.0769 19.2616 24.923 31.001 26.7079C30.9904 27.119 30.9904 27.5354 30.9904 27.9519C30.9904 38.5475 33.9212 47.5204 37.9732 50.5655C20.1691 49.4783 6.2035 38.8936 6.2035 25.9994ZM44.0271 50.5655C48.079 47.5204 51.0099 38.5475 51.0099 27.9519C51.0099 27.53 51.0045 27.119 50.9992 26.7079C62.7333 24.923 71.1522 20.0823 71.1522 14.3924C71.1522 14.1328 71.1309 13.8732 71.0988 13.619C74.0831 17.2644 75.7967 21.4886 75.7967 25.9994C75.7967 38.8936 61.8311 49.4783 44.0271 50.5655Z" fill="black"/>
</g>
<defs>
<clipPath id="clip0_1_6316">
<rect width="82" height="54" fill="white"/>
</clipPath>
</defs>
</svg>
