<svg width="25" height="24" viewBox="0 0 25 24" fill="none" xmlns="http://www.w3.org/2000/svg">
<mask id="mask0_1_2396" style="mask-type:luminance" maskUnits="userSpaceOnUse" x="0" y="0" width="25" height="24">
<path d="M0.5 0H24.5V24H0.5V0Z" fill="white"/>
</mask>
<g mask="url(#mask0_1_2396)">
<path d="M20.5026 10.0002V7.33288C20.5026 5.86051 19.309 4.66686 17.8366 4.66686H17.8359V10.0002H20.5026Z" stroke="black" stroke-width="2" stroke-miterlimit="10" stroke-linecap="round" stroke-linejoin="round"/>
<path d="M17.8307 4.66663C17.8307 3.19398 16.6368 1.99995 15.164 1.99995H9.8307C8.35796 1.99995 7.16406 3.19398 7.16406 4.66663V19.3333H17.8307V4.66663Z" stroke="black" stroke-width="2" stroke-miterlimit="10" stroke-linecap="round" stroke-linejoin="round"/>
<path d="M9.83105 8.66669H15.1644V4.66669H9.83105V8.66669Z" stroke="black" stroke-width="2" stroke-miterlimit="10" stroke-linecap="round" stroke-linejoin="round"/>
<path d="M20.4971 22C20.4971 21.2927 20.2161 20.6147 19.716 20.1144C19.2159 19.6143 18.5377 19.3333 17.8304 19.3333H7.16375C6.45653 19.3333 5.77823 19.6143 5.27815 20.1144C4.77802 20.6147 4.49707 21.2927 4.49707 22H20.4971Z" stroke="black" stroke-width="2" stroke-miterlimit="10" stroke-linecap="round" stroke-linejoin="round"/>
<path d="M12.5029 11.3331C12.5029 11.3331 10.5029 12.9998 10.5029 14.6665C10.5029 15.7705 11.3991 16.6665 12.5029 16.6665C13.6068 16.6665 14.5029 15.7705 14.5029 14.6665C14.5029 12.9998 12.5029 11.3331 12.5029 11.3331Z" stroke="black" stroke-width="2" stroke-miterlimit="10" stroke-linecap="round" stroke-linejoin="round"/>
<path d="M17.8359 15.3332C17.8359 16.0695 18.4329 16.6665 19.1693 16.6665C19.9057 16.6665 20.5026 16.0695 20.5026 15.3332V9.99982" stroke="black" stroke-width="2" stroke-miterlimit="10" stroke-linecap="round" stroke-linejoin="round"/>
<path d="M2.5 22H22.5" stroke="black" stroke-width="2" stroke-miterlimit="10" stroke-linecap="round" stroke-linejoin="round"/>
</g>
</svg>
