<svg width="65" height="64" viewBox="0 0 65 64" fill="none" xmlns="http://www.w3.org/2000/svg">
<rect x="0.666748" width="64" height="64" rx="32" fill="#FF9E0C"/>
<path d="M44.6711 37.7402V41.2402C44.6724 41.5651 44.6058 41.8867 44.4757 42.1844C44.3455 42.4821 44.1546 42.7493 43.9152 42.969C43.6757 43.1887 43.3931 43.3559 43.0853 43.46C42.7775 43.5641 42.4513 43.6027 42.1277 43.5735C38.5377 43.1834 35.0892 41.9567 32.0594 39.9918C29.2405 38.2006 26.8506 35.8107 25.0594 32.9918C23.0877 29.9482 21.8607 26.483 21.4777 22.8768C21.4486 22.5542 21.4869 22.229 21.5903 21.922C21.6937 21.6151 21.8599 21.333 22.0783 21.0937C22.2967 20.8545 22.5625 20.6633 22.8588 20.5324C23.1551 20.4015 23.4755 20.3338 23.7994 20.3335H27.2994C27.8656 20.3279 28.4145 20.5284 28.8438 20.8976C29.2731 21.2668 29.5535 21.7795 29.6327 22.3402C29.7805 23.4602 30.0544 24.56 30.4494 25.6185C30.6064 26.0361 30.6403 26.4899 30.5473 26.9262C30.4542 27.3625 30.2381 27.7629 29.9244 28.0802L28.4427 29.5618C30.1035 32.4826 32.5219 34.901 35.4427 36.5618L36.9244 35.0802C37.2416 34.7665 37.6421 34.5503 38.0784 34.4573C38.5147 34.3642 38.9685 34.3982 39.3861 34.5552C40.4445 34.9501 41.5443 35.2241 42.6644 35.3718C43.2311 35.4518 43.7487 35.7372 44.1187 36.1739C44.4887 36.6106 44.6853 37.168 44.6711 37.7402Z" stroke="white" stroke-width="2" stroke-linecap="round" stroke-linejoin="round"/>
</svg>
